<svg xmlns="http://www.w3.org/2000/svg" width="150" height="50" viewBox="0,0,150,50"><rect width="100%" height="100%" fill="#f0f2f5"/><path fill="#abd42f" d="M29.17 30.70L21.88 22.80L21.75 22.67Q22.47 25.69 22.47 28.69L22.47 28.69L22.55 28.76Q22.44 33.46 20.79 37.93L20.80 37.94L20.80 37.94Q19.87 38.07 18.06 38.68L18.23 38.85L18.23 38.86Q20.33 34.04 20.33 28.66L20.40 28.73L20.49 28.81Q20.50 21.88 16.89 15.92L16.86 15.89L16.81 15.84Q17.10 15.91 17.65 16.24L17.62 16.22L17.73 16.33Q27.36 25.26 33.66 32.69L33.81 32.84L33.80 32.83Q33.52 30.83 33.52 28.88L33.46 28.82L33.37 28.73Q33.47 23.01 35.49 18.02L35.52 18.05L35.58 18.11Q37.41 17.65 38.70 17.10L38.64 17.05L38.68 17.08Q35.89 21.92 35.65 27.67L35.72 27.74L35.66 27.68Q35.51 33.67 37.89 38.63L37.91 38.64L37.91 38.65Q37.46 38.60 37.12 38.44L37.01 38.33L36.98 38.30Q33.37 35.18 29.18 30.71L29.16 30.69ZM40.01 41.20L40.04 41.24L40.00 41.20Q40.33 41.28 40.67 41.43L40.71 41.48L41.35 41.72L41.38 41.75Q37.29 36.22 37.29 28.70L37.20 28.60L37.18 28.59Q37.19 22.79 39.85 17.77L39.98 17.89L39.91 17.82Q39.43 18.05 38.30 18.54L38.25 18.49L38.32 18.56Q38.46 17.72 39.13 16.46L39.30 16.63L39.23 16.57Q37.15 17.18 35.19 17.63L35.24 17.68L35.27 17.71Q33.08 22.83 33.08 28.80L33.23 28.95L33.26 28.98Q33.17 30.39 33.32 31.98L33.33 31.98L33.39 32.05Q29.49 27.32 25.66 23.62L25.73 23.68L17.69 15.95L17.60 15.86Q17.23 15.70 16.25 15.24L16.19 15.19L16.15 15.14Q20.05 21.34 20.05 28.65L20.07 28.67L20.14 28.74Q20.03 34.35 17.55 39.19L17.62 39.26L17.68 39.31Q17.98 39.27 19.29 38.78L19.18 38.67L19.16 38.65Q18.96 39.34 18.29 40.53L18.26 40.50L18.36 40.60Q19.40 40.15 22.19 39.51L22.07 39.39L22.13 39.45Q24.08 34.61 24.08 28.83L24.07 28.82L23.92 28.67Q23.96 27.03 23.78 25.31L23.79 25.33L23.84 25.37Q33.03 35.63 39.94 41.14Z"/><path d="M11 46 C74 6,60 13,146 42" stroke="#ecb278" fill="none"/><path fill="#6ae56a" d="M92.80 35.35L92.92 35.46L92.77 35.31Q93.04 36.14 93.47 37.76L93.58 37.87L93.57 37.87Q90.17 36.79 86.47 37.00L86.46 36.99L86.41 36.95Q82.77 37.19 79.56 38.78L79.43 38.65L79.61 38.83Q79.66 38.14 79.69 38.20L79.65 38.17L79.82 38.33Q82.69 35.02 85.84 31.48L85.91 31.54L85.95 31.59Q89.47 27.55 90.42 23.79L90.33 23.70L90.47 23.84Q90.83 22.42 89.80 21.47L89.78 21.45L89.65 21.32Q88.74 20.49 87.31 20.62L87.28 20.59L87.20 20.51Q87.00 20.55 86.73 20.55L86.75 20.58L86.76 20.58Q85.45 20.51 84.44 21.24L84.55 21.35L84.57 21.36Q83.39 22.33 83.58 24.47L83.54 24.44L83.55 24.44Q82.15 24.21 81.17 23.84L81.20 23.87L81.21 23.88Q81.00 22.69 80.93 21.52L80.89 21.48L81.01 21.60Q80.86 20.19 81.35 19.28L81.48 19.40L81.38 19.31Q82.91 18.30 85.60 18.30L85.53 18.22L86.98 18.27L86.94 18.23Q88.86 18.34 89.62 18.43L89.52 18.34L89.63 18.44Q92.95 18.61 93.16 20.57L93.16 20.56L93.24 20.65Q93.29 21.09 93.23 21.73L93.20 21.71L93.26 21.77Q93.30 22.35 93.17 22.90L93.13 22.86L93.07 22.80Q91.87 29.43 85.78 34.94L85.79 34.94L85.73 34.89Q86.90 34.80 88.00 34.80L87.98 34.78L87.98 34.78Q90.63 34.83 92.92 35.47ZM92.35 18.63L92.36 18.63L92.42 18.69Q91.04 18.07 89.66 18.01L89.71 18.07L86.93 17.88L87.02 17.97Q83.35 17.67 81.58 18.56L81.65 18.63L81.60 18.58Q80.76 19.69 80.76 21.35L80.81 21.40L80.69 21.28Q80.70 21.84 80.94 24.10L81.11 24.27L80.91 24.07Q81.45 24.37 82.40 24.61L82.39 24.60L82.48 25.52L82.48 25.52Q82.45 25.89 82.52 26.32L82.50 26.30L82.43 26.23Q83.43 26.32 85.42 26.50L85.33 26.41L85.43 26.51Q85.31 26.11 85.31 25.84L85.37 25.90L85.47 26.00Q85.40 24.47 86.38 23.38L86.28 23.27L86.44 23.44Q87.27 22.20 88.70 22.29L88.69 22.27L88.74 22.32Q89.49 22.50 90.11 22.62L89.96 22.48L89.99 22.50Q90.07 22.80 90.13 23.14L90.20 23.20L90.19 23.19Q90.18 23.49 90.12 23.76L90.17 23.82L90.09 23.74Q89.06 27.54 85.51 31.42L85.65 31.56L85.57 31.49Q83.78 33.21 79.40 38.07L79.39 38.06L79.50 38.17Q79.40 38.89 79.12 39.35L78.98 39.21L79.06 39.29Q80.27 38.51 81.49 38.08L81.56 38.15L81.57 38.16Q81.08 38.71 80.32 39.91L80.13 39.72L80.19 39.77Q80.08 40.04 79.99 40.31L80.04 40.36L79.95 40.27Q83.96 38.71 88.36 38.87L88.39 38.89L88.26 38.76Q92.99 39.06 96.66 40.95L96.60 40.89L95.84 39.21L95.86 39.23Q95.21 38.03 94.99 37.39L95.08 37.48L95.10 37.49Q94.41 37.05 93.43 36.72L93.53 36.81L93.46 36.74Q93.41 36.23 93.10 35.13L92.97 35.00L93.15 35.18Q91.32 34.67 89.49 34.51L89.42 34.44L89.53 34.55Q93.14 30.73 94.36 24.09L94.36 24.09L94.69 21.94L94.53 21.79Q94.49 20.36 93.51 19.81L93.54 19.84L93.51 19.85L93.54 19.88Q93.45 19.75 93.39 19.75L93.34 19.70L93.53 19.90Q93.22 19.09 92.33 18.60Z"/><path fill="#50e174" d="M54.74 28.68L54.73 28.67L54.78 28.72Q54.71 32.08 54.13 35.41L54.25 35.53L54.29 35.57Q56.03 35.04 58.50 34.95L58.52 34.97L58.55 35.00Q59.49 35.01 60.34 34.20L60.37 34.23L60.34 34.20Q61.23 33.42 61.23 32.35L61.27 32.39L61.28 32.41Q61.37 32.25 61.34 32.03L61.22 31.91L61.20 31.89Q61.10 29.56 59.29 28.88L59.26 28.85L59.31 28.90Q58.75 28.71 58.20 28.78L58.19 28.77L58.10 28.67Q57.36 28.72 56.53 28.76L56.38 28.61L56.52 28.75Q55.65 28.76 54.82 28.76ZM53.75 20.28L53.90 20.43L53.72 20.25Q54.55 23.04 54.77 26.56L54.78 26.58L54.77 26.57Q55.88 26.61 58.02 26.64L58.06 26.67L58.13 26.74Q60.49 26.78 60.76 23.93L60.74 23.91L60.74 23.91Q60.76 22.22 59.63 21.55L59.61 21.52L59.77 21.68Q59.01 21.23 55.46 20.71L55.45 20.70L55.49 20.74Q54.46 20.44 53.72 20.26ZM50.96 38.82L50.80 38.65L50.94 38.80Q52.94 33.46 52.73 27.52L52.60 27.39L52.66 27.45Q52.49 21.65 50.13 16.45L50.13 16.45L50.07 16.39Q53.04 18.35 58.04 18.55L58.20 18.71L58.02 18.53Q63.04 18.74 63.31 21.07L63.33 21.08L63.31 21.06Q63.63 23.35 62.50 25.49L62.47 25.46L62.56 25.54Q61.95 26.74 60.67 27.29L60.63 27.25L60.66 27.29Q63.59 27.83 63.78 32.15L63.83 32.20L63.78 32.15Q63.89 33.09 63.83 34.22L63.83 34.22L63.68 34.07Q63.69 35.18 62.95 35.93L62.93 35.92L62.96 35.95Q62.28 36.77 61.21 36.89L61.11 36.80L61.15 36.84Q59.93 36.87 59.07 36.87L59.15 36.95L59.06 36.85Q54.48 36.86 50.84 38.69ZM61.17 39.00L61.11 38.93L61.12 38.94Q61.86 38.98 63.36 39.07L63.47 39.18L63.47 39.18Q64.65 39.26 65.54 38.56L65.49 38.51L65.51 38.53Q66.09 37.74 66.00 36.48L65.97 36.45L66.02 36.50Q65.88 35.66 65.30 32.87L65.30 32.88L65.36 32.93Q64.84 30.37 63.34 29.17L63.38 29.21L62.96 28.46L62.87 28.36Q64.28 27.29 64.73 24.26L64.67 24.20L64.85 24.38Q64.87 23.36 64.81 22.23L64.88 22.30L64.85 22.26Q64.71 21.12 63.82 20.44L63.82 20.44L63.98 20.60Q63.61 20.32 63.52 20.29L63.57 20.34L63.45 20.23Q63.37 19.93 62.70 19.29L62.67 19.26L62.73 19.32Q61.52 18.48 58.12 18.33L57.97 18.17L57.99 18.19Q52.75 18.06 49.54 15.74L49.52 15.72L49.56 15.75Q52.10 21.29 52.34 27.35L52.33 27.33L52.48 27.49Q52.77 33.80 50.50 39.37L50.39 39.26L52.12 38.57L52.17 38.62Q51.73 39.40 51.33 40.32L51.41 40.40L51.38 40.37Q54.79 38.82 58.83 38.82L58.96 38.95L58.90 38.89Q60.03 38.89 61.19 39.01ZM59.40 30.46L59.39 30.46L59.41 30.47Q60.05 30.47 60.78 30.84L60.69 30.75L60.74 30.80Q60.83 31.06 60.95 31.92L60.90 31.87L60.99 31.96Q61.22 33.14 60.47 33.98L60.39 33.90L60.47 33.98Q59.54 34.64 58.40 34.54L58.44 34.58L57.25 34.68L57.40 34.82Q56.74 34.81 56.16 34.90L56.17 34.91L56.02 34.76Q56.39 33.42 56.45 30.63L56.47 30.65L56.36 30.54Q56.89 30.49 57.90 30.46L57.87 30.43L57.88 30.44Q59.03 30.55 59.52 30.58ZM58.69 22.87L58.55 22.73L59.00 22.87L58.88 22.75Q59.06 22.75 59.21 22.78L59.35 22.92L59.62 22.88L59.82 22.93L60.39 23.07L60.25 22.93Q60.40 23.21 60.40 23.45L60.38 23.43L60.38 23.85L60.35 23.83Q60.42 24.90 59.71 25.65L59.61 25.55L59.63 25.57Q58.91 26.30 57.93 26.30L57.96 26.33L57.95 26.32Q57.18 26.38 57.18 26.38L57.15 26.35L57.24 26.44Q56.20 26.44 56.48 26.44L56.45 26.41L56.46 26.42Q56.41 25.18 56.16 22.73L56.12 22.69L56.16 22.73Q57.47 22.87 58.69 22.87Z"/><path fill="#e47a7a" d="M121.46 28.05L121.38 27.96L116.69 28.08L116.70 28.09Q114.29 28.06 111.93 28.00L111.95 28.02L111.83 27.90Q112.08 33.44 110.43 37.87L110.43 37.87L110.34 37.79Q108.86 38.18 107.46 38.73L107.44 38.71L107.52 38.79Q109.70 34.15 109.70 28.80L109.75 28.84L109.68 28.78Q109.79 22.07 106.49 16.41L106.52 16.44L106.45 16.37Q107.56 16.90 109.55 17.54L109.66 17.65L109.65 17.64Q111.45 21.79 111.88 25.71L111.68 25.52L111.85 25.69Q114.42 26.02 116.71 25.99L116.58 25.85L116.74 26.01Q118.71 25.84 121.37 25.63L121.35 25.61L121.49 25.75Q121.78 22.12 123.18 18.02L123.31 18.15L123.18 18.01Q124.87 17.81 126.67 17.14L126.56 17.02L126.56 17.02Q123.71 22.49 123.71 28.88L123.77 28.95L123.77 28.95Q123.65 33.81 125.54 38.09L125.60 38.15L125.61 38.16Q124.29 37.63 122.64 37.39L122.71 37.47L122.59 37.34Q121.36 33.43 121.46 28.04ZM122.44 37.68L122.51 37.75L122.45 37.69Q123.31 37.85 124.20 38.06L124.05 37.92L124.10 37.96Q124.32 38.49 124.84 39.68L125.03 39.87L124.86 39.70Q127.63 40.55 129.07 41.28L129.00 41.21L128.99 41.20Q125.52 36.36 125.28 29.72L125.14 29.58L125.17 29.61Q124.95 23.19 127.89 17.71L127.99 17.81L127.16 18.20L127.06 18.10Q126.77 18.40 126.29 18.52L126.23 18.46L126.19 18.43Q126.48 17.74 127.16 16.49L127.10 16.43L127.11 16.44Q125.06 17.36 122.95 17.76L122.93 17.74L123.03 17.84Q121.67 21.71 121.30 25.47L121.17 25.34L121.27 25.44Q119.17 25.51 117.21 25.51L117.24 25.53L117.21 25.51Q115.35 25.57 113.33 25.45L113.43 25.56L113.25 25.37Q113.16 22.83 112.27 19.56L112.25 19.54L112.19 19.48Q111.77 19.52 110.61 19.21L110.48 19.08L110.61 19.22Q110.32 18.25 109.95 17.42L109.85 17.32L109.96 17.43Q107.69 16.75 105.85 15.74L105.89 15.78L105.76 15.65Q109.61 21.79 109.61 28.86L109.54 28.78L109.48 28.73Q109.46 34.30 106.95 39.23L107.04 39.32L107.05 39.33Q107.64 39.13 108.71 38.67L108.59 38.55L108.68 38.64Q108.40 39.30 107.76 40.53L107.78 40.55L107.64 40.41Q110.06 39.77 111.86 39.43L111.84 39.41L111.79 39.36Q113.37 34.97 113.52 30.01L113.46 29.96L113.47 29.97Q114.77 29.92 117.33 29.88L117.40 29.95L117.40 29.95Q119.57 29.80 121.10 29.86L121.12 29.88L121.06 29.82Q121.33 34.49 122.40 37.64Z"/></svg>